HIERARCHY
ROOT pelvis
{
  OFFSET 0 100 0
  CHANNELS 6 Xposition Yposition Zposition Zrotation Xrotation Yrotation
  JOINT pelvis_right_femur
  {
    OFFSET -10.78128 -3.44521 -0.5502486
    CHANNELS 3 Zrotation Xrotation Yrotation
    JOINT right_femur_tibia
    {
      OFFSET -0.8047443 -44.0398 -0.1307829
      CHANNELS 3 Zrotation Xrotation Yrotation
      JOINT right_tibia_foot
      {
        OFFSET 3.006224 -47.83518 -5
        CHANNELS 3 Zrotation Xrotation Yrotation
        End Site
        {
          OFFSET 0 -5 15
        }
      }
    }
  }
  JOINT pelvis_left_femur
  {
    OFFSET 10.78128 -3.44521 -0.5502486
    CHANNELS 3 Zrotation Xrotation Yrotation
    JOINT left_femur_tibia
    {
      OFFSET 0.8047443 -44.0398 -0.1307829
      CHANNELS 3 Zrotation Xrotation Yrotation
      JOINT left_tibia_foot
      {
        OFFSET -4.370144 -48.10324 -4.275266
        CHANNELS 3 Zrotation Xrotation Yrotation
        End Site
        {
          OFFSET 0 -5 15
        }
      }
    }
  }
  JOINT pelvis_spine1
  {
    OFFSET 0 6.468898 -3.129235
    CHANNELS 3 Zrotation Xrotation Yrotation
    JOINT spine1
    {
      OFFSET 0 23.15396 4.99043
      CHANNELS 3 Zrotation Xrotation Yrotation
      JOINT spine2
      {
        OFFSET 0 20.79997 -5.064912
        CHANNELS 3 Zrotation Xrotation Yrotation
        JOINT neck
        {
          OFFSET 0 14.38658 9.616178
          CHANNELS 3 Zrotation Xrotation Yrotation
          End Site
          {
            OFFSET 0 20 0
          }
        }
      }
      JOINT right_manubrium
      {
        OFFSET -5.722621 16.35077 3.967754
        CHANNELS 3 Zrotation Xrotation Yrotation
        JOINT right_clavicle
        {
          OFFSET -13.16364 1.694482 -4.693211
          CHANNELS 3 Zrotation Xrotation Yrotation
          JOINT right_humerus
          {
            OFFSET -28.5034 -0.3100689 -2.792744
            CHANNELS 3 Zrotation Xrotation Yrotation
            JOINT right_radius
            {
              OFFSET -25.15693 0.02248979 -1.271978
              CHANNELS 3 Zrotation Xrotation Yrotation
              End Site
              {
                OFFSET -15 0 0
              }
            }
          }
        }
      }
      JOINT left_manubrium
      {
        OFFSET 5.722621 16.35077 3.967754
        CHANNELS 3 Zrotation Xrotation Yrotation
        JOINT left_clavicle
        {
          OFFSET 13.16364 1.694482 -4.693211
          CHANNELS 3 Zrotation Xrotation Yrotation
          JOINT left_humerus
          {
            OFFSET 29.39168 -1.063119 -2.237045
            CHANNELS 3 Zrotation Xrotation Yrotation
            JOINT left_radius
            {
              OFFSET 24.59957 -0.9528479 0.9047498
              CHANNELS 3 Zrotation Xrotation Yrotation
              End Site
              {
                OFFSET 15 -0 -0
              }
            }
          }
        }
      }
    }
  }
}
MOTION
Frames: 9
Frame Time: 0.0416666666667
0 103.5113 0 1.549641 -0.9165988 0.0007469873 4.807648 -15.22692 13.43704 -0 37.78226 -0 -3.484529 -16.93274 -4.688826 -7.547061 8.611053 -20.65898 -0 6.109472 -0 20.43259 -8.871522 29.08997 -3.446664 -3.234367 4.812814 3.24473 10.74635 -8.110224 1.528624 21.10588 6.402527 2.228114 -26.86287 10.4091 5.559625 -20.9235 11.4847 86.98084 38.58352 -19.35161 -0 0 15.47076 -6.42078 9.137383 4.976695 4.812644 -19.87474 -2.019888 -91.35185 22.83649 20.83314 0 0 -18.73206 14.07045 12.90265 -1.853521
0.5248658 103.4662 1.747338 1.309802 0.05615546 -0.01343034 5.489189 -18.02574 13.71331 -0 37.30795 -0 -3.556975 -16.58096 -4.402362 -7.635629 9.2806 -20.99874 -0 6.241568 -0 20.93213 -9.620991 29.54875 -3.328759 -3.030882 4.754601 3.341043 10.79488 -8.150636 1.346024 21.08997 6.615808 2.201856 -26.90223 10.43618 5.497022 -20.82011 11.68351 87.38341 38.9503 -19.68064 -0 0 14.91924 -6.417693 9.118238 5.325371 4.589676 -19.90613 -2.248425 -90.7299 22.56307 20.40678 0 0 -19.92559 14.25777 11.93305 -1.931797
0.8954745 103.311 3.613115 0.9203733 0.4528064 9.260663e-05 5.69645 -20.60962 11.52589 -0 34.43315 -0 -4.442221 -15.47438 -3.89584 -7.366126 10.61332 -21.3799 -0 6.45164 -0 17.1321 -13.08591 28.67332 -2.950611 -2.830669 4.627005 3.372519 10.57509 -8.014909 1.486755 21.21458 6.421329 2.242466 -26.55796 10.18314 5.472764 -20.07306 11.6293 87.07608 37.84918 -19.59296 -0 0 14.07365 -6.904398 9.594592 5.267022 4.767763 -19.83387 -2.072438 -91.01171 22.61447 20.23401 0 0 -18.72789 13.66084 12.65753 -1.455808
1.176763 103.0939 5.620456 0.603031 1.041861 0.0471364 5.990519 -23.18696 10.29878 -0 32.14252 -0 -4.918472 -14.33115 -3.432597 -7.182865 11.50594 -21.41154 -0 6.599414 -0 15.05282 -15.2872 27.881 -2.695105 -2.63975 4.526508 3.374431 10.46427 -7.933127 1.52856 21.27204 6.399446 2.284405 -26.30734 10.07133 5.421578 -19.5803 11.62727 87.07652 37.37694 -19.63954 -0 0 13.3699 -7.199785 9.864702 5.305774 4.897281 -19.85564 -2.023419 -90.85497 22.45218 19.80109 0 0 -18.55932 13.54671 12.74364 -1.4087
1.391649 102.8054 7.864229 0.2515009 1.719463 0.1455933 6.399252 -26.0871 9.209608 -0 29.41332 -0 -5.390727 -12.7581 -2.896726 -6.977542 12.2951 -21.08659 -0 7.004854 -0 13.57615 -17.06656 26.93761 -2.558946 -2.50031 4.472582 3.444556 10.43255 -7.920793 1.470798 21.31235 6.441123 2.264893 -26.25441 10.01647 5.388802 -19.37047 11.72325 87.16977 37.25922 -19.76669 -0 0 12.93762 -7.286209 9.943793 5.463502 4.782274 -19.82372 -2.102671 -90.69336 22.41894 19.65345 0 0 -18.77452 13.39612 12.47314 -1.212067
1.563263 102.4465 10.43839 -0.1077614 2.386711 0.3084594 6.841761 -28.91139 8.23279 -0 26.42838 -0 -5.855332 -10.89002 -2.347673 -6.76067 12.96891 -20.44893 -0 7.756571 -0 12.49157 -18.39695 25.8459 -2.439197 -2.349306 4.428833 3.512368 10.42505 -7.912098 1.376588 21.34322 6.540952 2.24798 -26.22841 9.999762 5.355277 -19.21585 11.8502 87.33345 37.31291 -19.92541 -0 0 12.521 -7.308846 9.960146 5.657672 4.634826 -19.80473 -2.222341 -90.43767 22.34724 19.4829 0 0 -19.25642 13.34865 12.01276 -1.089235
1.710125 102.0368 13.47209 -0.4967403 2.946009 0.5470593 7.311141 -31.45991 7.277233 -0 23.25998 -0 -6.430733 -8.665222 -1.793558 -6.499439 13.57321 -19.48214 -0 9.189341 -0 11.57585 -19.22926 24.52356 -2.301761 -2.178143 4.383202 3.570547 10.41413 -7.89157 1.276081 21.37573 6.661343 2.243366 -26.17893 9.987072 5.321805 -19.03506 11.98286 87.51554 37.38119 -20.09449 -0 0 12.06097 -7.326179 9.964345 5.851665 4.503028 -19.79934 -2.345534 -90.14941 22.2575 19.27639 0 0 -19.80576 13.31858 11.51108 -0.9766868
1.848111 101.6318 17.08712 -0.9307831 3.324652 0.869952 7.777986 -33.37475 6.389328 -0 20.3573 -0 -7.133659 -6.265279 -1.294303 -6.158174 14.10937 -18.289 -0 11.55103 -0 10.41314 -19.51408 22.85181 -2.140222 -1.986123 4.325767 3.601383 10.38776 -7.850437 1.189316 21.41031 6.795635 2.262825 -26.07553 9.980121 5.283361 -18.7943 12.09635 87.71225 37.41779 -20.26601 -0 0 11.52808 -7.358777 9.974866 6.011889 4.4429 -19.82654 -2.447729 -89.81622 22.13332 18.96449 0 0 -20.39821 13.33467 11.03411 -0.9220511
1.989463 101.3198 21.38214 -1.432418 3.36067 1.264674 8.212404 -34.14054 5.556012 -0 18.2071 -0 -8.023585 -3.931582 -0.9225601 -5.660159 14.50918 -16.94599 -0 15.22701 -0 8.512182 -19.07089 20.64103 -1.960557 -1.782087 4.251307 3.604958 10.33736 -7.789082 1.129433 21.45281 6.925258 2.302698 -25.91396 9.972889 5.238044 -18.48679 12.17748 87.90371 37.37272 -20.42855 -0 0 10.92926 -7.418345 10.00158 6.122874 4.464448 -19.88103 -2.516068 -89.46762 22.00076 18.55174 0 0 -20.95994 13.3664 10.64929 -0.9025583
